<svg width="165" height="173" fill="none" xmlns="http://www.w3.org/2000/svg"><g filter="url(#a)"><path d="M31.395 17.147c0-2.636 2.791-4.334 5.118-3.114l28.119 14.752-33.237 39.791V17.147Z" fill="#DC6900" stroke="#000"/><path d="M41.386 32.116c0-2.637 2.791-4.335 5.118-3.114l11.522 6.044c1.975 1.036 2.486 3.64 1.052 5.356L47.556 54.197c-2.097 2.51-6.17 1.03-6.17-2.242v-19.84Z" fill="#000" stroke="#000"/><path d="M92.653 152.54c-1.144 2.368-3.359 4.121-6.462 5.234-3.107 1.114-7.073 1.573-11.643 1.367-9.139-.413-20.594-3.483-32.186-9.132-11.634-5.671-19.29-10.323-24.344-16.016-4.977-5.606-7.466-12.266-8.668-22.035 5.842-3.101 12.59-5.26 20.694-5.298 8.246-.038 17.924 2.121 29.509 7.767 11.591 5.65 21.081 12.789 27.059 19.744 2.99 3.478 5.084 6.892 6.135 10.032 1.05 3.138 1.05 5.969-.094 8.337Z" fill="#DC6900" stroke="#000"/><path d="M29.44 121.801c-1.22 3.544-2.726 5.243-4.232 6.943l-.377.427c-1.557 1.774-3.05 3.677-4.076 7.605-.27-.255-.547-.511-.831-.773-1.604-1.479-3.415-3.148-5.152-5.916-2.252-3.589-4.366-9.029-5.526-18.204 5.745-2.747 10.154-4.157 14.216-4.793 3.855-.604 7.421-.515 11.557-.188-2.087 2.767-2.947 4.823-3.523 6.951a50.94 50.94 0 0 0-.569 2.415c-.082.378-.166.763-.256 1.157a40.96 40.96 0 0 1-1.232 4.376Z" fill="#fff" stroke="#000"/><path d="m60.952 89.937 24.034-55.263 24.336 55.265 14.871 48.542c2.624 8.565-2.007 17.67-10.474 20.593a42.356 42.356 0 0 1-8.283 1.955l-6.984.921a99.503 99.503 0 0 1-26.617-.083l-7.258-1.002a42.643 42.643 0 0 1-7.787-1.834c-8.581-2.896-13.3-12.093-10.648-20.752l14.81-48.342ZM138.879 17.135c0-2.634-2.787-4.332-5.113-3.116l-28.183 14.727 33.296 39.831V17.135Z" fill="#DC6900" stroke="#000"/><path d="M128.828 32.076c0-2.636-2.791-4.335-5.118-3.114l-11.522 6.045c-1.975 1.036-2.486 3.64-1.052 5.356l11.522 13.794c2.097 2.511 6.17 1.03 6.17-2.242V32.076Z" fill="#000" stroke="#000"/><path d="M138.835 69.791c-7.29 7.377-13.374 12.24-21.254 16.179-7.939 3.967-17.723 7.008-32.444 10.707-14.645-3.7-24.507-6.74-32.504-10.708-7.937-3.938-14.058-8.802-21.195-16.175C33.913 57.602 39.522 46.7 48.345 38.83c8.88-7.92 21.047-12.796 36.638-12.796 15.59 0 27.835 4.915 36.793 12.855 8.899 7.889 14.583 18.79 17.059 30.902Z" fill="#DC6900" stroke="#000"/><path d="M125.227 70.204c3.875-.666 8.049-.68 13.121.092-5.631 5.772-11.582 11.37-23.064 16.692-7.719 3.578-16.71 6.386-28.7 9.337.838-.943 1.635-1.85 2.405-2.729 6.637-7.566 11.319-12.903 24.103-19.17 4.214-2.064 8.019-3.514 12.135-4.222ZM44.978 70.28c-3.844-.702-7.986-.75-13.053.016 5.627 5.79 11.46 11.524 22.937 16.844 7.72 3.579 16.71 6.386 28.701 9.337-.838-.943-1.635-1.85-2.405-2.729-6.638-7.566-11.32-12.903-24.103-19.169-4.218-2.067-7.992-3.554-12.077-4.3Z" fill="#fff" stroke="#000"/><path d="M85.121 89.454c3.115 0 4.928 3.523 3.127 6.076l-.13.186a3.653 3.653 0 0 1-3.745 1.467l-.023-.005a3.741 3.741 0 0 1-2.21-1.42l-.102-.135c-1.897-2.54-.083-6.169 3.083-6.169ZM71.862 56.503c0 4.026-3.249 7.29-7.257 7.29-4.008 0-7.258-3.264-7.258-7.29s3.25-7.29 7.258-7.29 7.257 3.264 7.257 7.29Z" fill="#000"/><ellipse cx="62.947" cy="54.166" rx="2.157" ry="2.167" fill="#fff"/><path d="M73.928 60.075a10.867 10.867 0 0 0-2.21-7.187c-1.569-2.054-3.522-3.163-6.043-3.696-2.522-.534-5.289.093-7.548 1.338-2.26 1.245-3.771 2.637-5.065 5.134 1.557-2.273 3.08-3.514 5.247-4.708 2.168-1.194 4.626-1.697 7.045-1.185 2.418.511 4.128 1.42 5.797 3.36 1.615 1.88 2.551 4.492 2.756 6.93l.02.014ZM108.281 56.813c0 4.026-3.249 7.289-7.258 7.289-4.008 0-7.257-3.264-7.257-7.29 0-4.025 3.25-7.289 7.257-7.289 4.009 0 7.258 3.264 7.258 7.29Z" fill="#000"/><ellipse cx="99.366" cy="54.476" rx="2.157" ry="2.167" fill="#fff"/><path d="M91.777 59.695a10.864 10.864 0 0 1 2.472-7.102c1.642-1.995 3.634-3.031 6.173-3.47 2.539-.44 5.282.287 7.494 1.614 2.213 1.327 3.672 2.775 4.874 5.317-1.473-2.329-2.949-3.624-5.072-4.897-2.122-1.273-4.56-1.866-6.996-1.444-2.436.422-4.178 1.266-5.916 3.145-1.683 1.819-2.714 4.395-3.007 6.824l-.022.013Z" fill="#000"/><path d="M96.234 114.57c2.903 6.751 5.052 15.83 6.899 26.651.096.79.19 1.55.28 2.28.524 4.249.925 7.503 1.008 10.038.098 2.981-.253 4.83-1.243 6.085-.99 1.253-2.706 2.024-5.649 2.602-2.65.522-6.188.87-10.89 1.333l-1.5.148c-5.11-.541-8.892-.953-11.68-1.596-2.799-.644-4.49-1.499-5.51-2.847-1.024-1.354-1.444-3.303-1.446-6.329-.003-2.945.387-6.806.908-11.958l.039-.383c1.692-10.43 3.765-19.353 6.628-26.044 2.839-6.634 6.41-10.972 11.059-12.498 4.649 1.526 8.22 5.827 11.097 12.518Z" fill="#fff" stroke="#000"/><path d="M84.674 163.745c-2.773.309-5.085.309-12.943-.464-5.878-.579-8.476-1.393-11.25-2.786 3.237-5.263 8.168-7.12 14.023-6.346 5.548 1.238 8.784 4.334 10.17 9.596ZM85.735 163.902c2.774.31 5.085.31 12.944-.464 5.878-.579 8.475-1.393 11.249-2.786-3.236-5.262-8.167-7.119-14.023-6.345-5.547 1.238-8.783 4.333-10.17 9.595Z" fill="#000"/></g><defs><filter id="a" x="-4" y="0" width="173" height="179" filterUnits="userSpaceOnUse" color-interpolation-filters="sRGB"><feFlood flood-opacity="0" result="BackgroundImageFix"/><feColorMatrix in="SourceAlpha" values="0 0 0 0 0 0 0 0 0 0 0 0 0 0 0 0 0 0 127 0" result="hardAlpha"/><feOffset dy="4"/><feGaussianBlur stdDeviation="2"/><feComposite in2="hardAlpha" operator="out"/><feColorMatrix values="0 0 0 0 0 0 0 0 0 0 0 0 0 0 0 0 0 0 0.25 0"/><feBlend in2="BackgroundImageFix" result="effect1_dropShadow_1_135"/><feBlend in="SourceGraphic" in2="effect1_dropShadow_1_135" result="shape"/></filter></defs></svg>