<svg width="40" height="40" fill="none" xmlns="http://www.w3.org/2000/svg"><g clip-path="url(#a)"><path d="M22.982 26.31H15.53c0-1.476.45-2.934 1.35-4.374.9-1.44 1.962-2.646 3.186-3.618 3.024-2.448 4.536-4.68 4.536-6.696 0-1.26-.432-2.232-1.296-2.916-.864-.684-2.07-1.026-3.618-1.026-3.024 0-5.166 1.602-6.426 4.806L6.89 8.814c1.08-2.628 2.79-4.68 5.13-6.156S17.006.444 19.958.444c3.24 0 6.066.954 8.478 2.862 2.412 1.872 3.618 4.464 3.618 7.776 0 1.476-.324 2.88-.972 4.212-.612 1.296-1.368 2.412-2.268 3.348-.864.9-1.746 1.764-2.646 2.592-.864.792-1.62 1.62-2.268 2.484-.612.864-.918 1.728-.918 2.592Zm.864 8.802c0 1.26-.45 2.34-1.35 3.24-.9.9-1.98 1.35-3.24 1.35-1.26 0-2.34-.45-3.24-1.35-.9-.9-1.35-1.98-1.35-3.24 0-1.26.45-2.34 1.35-3.24.9-.9 1.98-1.35 3.24-1.35 1.26 0 2.34.45 3.24 1.35.9.9 1.35 1.98 1.35 3.24Z" fill="#FFC70D"/></g><defs><clipPath id="a"><path fill="#FFC70D" d="M0 0h40v40H0z"/></clipPath></defs></svg>
