<svg width="110" height="112" fill="none" xmlns="http://www.w3.org/2000/svg"><path d="m55.025 110.461-.044-.001-.043.001c-14.249.409-25.468-2.431-33.847-7.622-8.364-5.182-14-12.766-17.005-22.048-4.523-13.97-.942-29.345 5.024-43.224 5.66-13.17 12.668-22.913 23.363-29.058C46.124.666 63.84.666 77.49 8.51c10.946 6.29 18.03 16.349 23.761 29.994 5.592 13.316 9.07 27.92 4.936 41.314-2.918 9.455-8.593 17.288-17.041 22.672-8.46 5.391-19.8 8.386-34.121 7.972Z" fill="#000" stroke="#000" stroke-width="3"/><path d="M99.71 37.377c5.777 13.36 9.477 28.486 4.815 42.275-6.026 17.823-22.453 29.582-49.383 28.804-26.74.767-42.857-10.374-49.05-27.821C.997 66.278 4.81 50.367 10.985 36.44 16.115 24.874 22.498 16 32.01 10.15c13.861-8.526 32.404-8.526 46.265 0 9.766 6.006 16.234 15.2 21.434 27.226Z" fill="#FFC70D"/><path fill-rule="evenodd" clip-rule="evenodd" d="M106.313 63.022c-.262 3.29-.893 6.549-1.97 9.735-6.027 17.824-22.453 29.583-49.383 28.805-26.74.767-42.858-10.374-49.05-27.822-1.24-3.492-1.952-7.075-2.231-10.7-.445 6.142.15 12.267 2.231 18.131 6.192 17.448 22.31 28.589 49.05 27.822 26.93.778 43.356-10.98 49.383-28.805 1.884-5.572 2.402-11.362 1.97-17.166Z" fill="#F89F00"/><path d="M45.07 46.445c0 5.499-4.439 9.944-9.9 9.944-5.46 0-9.9-4.445-9.9-9.944 0-5.498 4.44-9.943 9.9-9.943 5.461 0 9.9 4.445 9.9 9.943Z" stroke="#000" stroke-width="4"/><ellipse cx="35.171" cy="46.446" rx="5.024" ry="5.043" fill="#fff"/><ellipse cx="35.171" cy="46.446" rx="1.851" ry="1.858" fill="#000"/><path d="M85.794 46.445c0 5.499-4.439 9.944-9.9 9.944-5.46 0-9.9-4.445-9.9-9.944 0-5.498 4.44-9.943 9.9-9.943 5.461 0 9.9 4.445 9.9 9.943Z" stroke="#000" stroke-width="4"/><ellipse cx="75.895" cy="46.446" rx="5.024" ry="5.043" fill="#fff"/><ellipse cx="75.895" cy="46.446" rx="1.851" ry="1.858" fill="#000"/><path d="M46.542 46.71h17.453M86.737 46.71h20.097M3.173 46.71h20.098M47 61.697h17.155" stroke="#000" stroke-width="4" stroke-linecap="round"/><mask id="a" fill="#fff"><rect x="47" y="60" width="17" height="9" rx="2"/></mask><rect x="47" y="60" width="17" height="9" rx="2" fill="#fff" stroke="#000" stroke-width="6" mask="url(#a)"/><path stroke="#000" stroke-width="3" d="M55.5 63v5.308"/></svg>