<svg width="110" height="112" fill="none" xmlns="http://www.w3.org/2000/svg"><path d="m55.025 110.461-.044-.001-.043.001c-14.249.409-25.468-2.431-33.847-7.622-8.364-5.182-14-12.766-17.005-22.048-4.523-13.97-.942-29.345 5.024-43.224 5.66-13.17 12.668-22.913 23.363-29.058C46.124.666 63.84.666 77.49 8.51c10.946 6.29 18.03 16.349 23.761 29.994 5.592 13.316 9.07 27.92 4.936 41.314-2.918 9.455-8.593 17.288-17.041 22.672-8.46 5.391-19.8 8.386-34.121 7.972Z" fill="#000" stroke="#000" stroke-width="3"/><path d="M99.71 37.376c5.777 13.36 9.477 28.487 4.815 42.276-6.026 17.823-22.453 29.582-49.383 28.804-26.74.767-42.857-10.374-49.05-27.821C.997 66.278 4.81 50.367 10.985 36.44 16.115 24.874 22.498 16 32.01 10.15c13.861-8.526 32.404-8.526 46.265 0 9.766 6.006 16.234 15.2 21.434 27.225Z" fill="#FFC70D"/><path fill-rule="evenodd" clip-rule="evenodd" d="M106.313 63.022c-.262 3.29-.893 6.549-1.97 9.735-6.027 17.824-22.453 29.583-49.383 28.805-26.74.767-42.858-10.374-49.05-27.822-1.24-3.491-1.952-7.075-2.231-10.7-.445 6.142.15 12.267 2.231 18.132 6.192 17.447 22.31 28.588 49.05 27.821 26.93.778 43.356-10.98 49.383-28.804 1.884-5.573 2.402-11.363 1.97-17.167Z" fill="#F89F00"/><path d="M37.637 38.483a3.534 3.534 0 0 1-3.524 3.543 3.534 3.534 0 0 1-3.524-3.543 3.533 3.533 0 0 1 3.524-3.542 3.533 3.533 0 0 1 3.524 3.542ZM79.419 38.483a3.534 3.534 0 0 1-3.524 3.543 3.534 3.534 0 0 1-3.525-3.543 3.534 3.534 0 0 1 3.525-3.542 3.533 3.533 0 0 1 3.524 3.542ZM68.872 49.292c1.986.03 3.275 1.61 2.97 3.166C70.184 60.902 64 67.091 55.268 67.091c-8.75 0-15.462-6.201-17.304-14.562-.337-1.532.952-3.14 3.003-3.14h14.83c4.591 0 6.549-.044 8.025-.078l.07-.002c1.415-.033 2.39-.056 4.98-.018Z" fill="#fff" stroke="#000" stroke-width="3"/><mask id="a" fill="#fff"><path fill-rule="evenodd" clip-rule="evenodd" d="M38.923 59.378c1.263-4.062 6.711-6.175 12.373-4.734 5.805 1.478 10.867 6.648 9.79 10.91-.205.81-.616 1.528-1.188 2.151-2.17.511-4.47.651-6.838.356-5.941-.742-10.955-4.056-14.137-8.683Z"/></mask><path fill-rule="evenodd" clip-rule="evenodd" d="M38.923 59.378c1.263-4.062 6.711-6.175 12.373-4.734 5.805 1.478 10.867 6.648 9.79 10.91-.205.81-.616 1.528-1.188 2.151-2.17.511-4.47.651-6.838.356-5.941-.742-10.955-4.056-14.137-8.683Z" fill="#EF5267"/><path d="m38.923 59.378-2.864-.894-.432 1.391.825 1.201 2.471-1.698Zm12.373-4.734.738-2.907-.737 2.907Zm9.79 10.91 2.908.738-2.908-.737Zm-1.188 2.151.69 2.92.897-.21.623-.68-2.21-2.03Zm-18.11-7.434c.294-.945 1.15-1.908 2.75-2.523 1.593-.612 3.732-.779 6.02-.196l1.476-5.815c-3.373-.859-6.79-.69-9.651.41-2.855 1.096-5.355 3.22-6.324 6.337l5.729 1.787Zm8.77-2.72c2.34.596 4.548 1.955 6.011 3.54 1.536 1.662 1.79 3.008 1.609 3.726l5.816 1.475c.896-3.544-.843-6.914-3.02-9.272-2.25-2.436-5.475-4.401-8.94-5.283l-1.475 5.815Zm7.62 7.266c-.07.275-.216.56-.49.858l4.42 4.06c.87-.947 1.547-2.1 1.886-3.443l-5.816-1.475Zm1.03-.032c-1.825.43-3.768.55-5.78.298l-.737 5.955c2.724.34 5.383.18 7.897-.412l-1.38-5.841Zm-5.78.298c-5.033-.627-9.305-3.435-12.033-7.404l-4.943 3.397c3.634 5.286 9.39 9.107 16.239 9.962l.737-5.955Z" fill="#000" mask="url(#a)"/></svg>