<svg width="110" height="112" fill="none" xmlns="http://www.w3.org/2000/svg"><path d="m55.025 110.461-.044-.001-.043.001c-14.249.409-25.468-2.431-33.847-7.622-8.364-5.182-14-12.766-17.005-22.048-4.523-13.97-.942-29.345 5.024-43.224 5.66-13.17 12.668-22.913 23.363-29.058C46.124.666 63.84.666 77.49 8.51c10.946 6.29 18.03 16.349 23.761 29.994 5.592 13.316 9.07 27.92 4.936 41.314-2.918 9.455-8.593 17.288-17.041 22.672-8.46 5.391-19.8 8.386-34.121 7.972Z" fill="#000" stroke="#000" stroke-width="3"/><path d="M99.71 37.376c5.777 13.36 9.477 28.487 4.815 42.276-6.026 17.823-22.453 29.582-49.383 28.804-26.74.767-42.857-10.374-49.05-27.821C.997 66.278 4.81 50.367 10.985 36.44 16.115 24.874 22.498 16 32.01 10.15c13.861-8.526 32.404-8.526 46.265 0 9.766 6.006 16.234 15.2 21.434 27.225Z" fill="#FFC70D"/><path fill-rule="evenodd" clip-rule="evenodd" d="M106.313 63.022c-.262 3.29-.893 6.549-1.97 9.735-6.027 17.824-22.453 29.583-49.383 28.805-26.74.767-42.858-10.374-49.05-27.822-1.24-3.492-1.952-7.075-2.231-10.7-.446 6.142.15 12.267 2.231 18.131 6.192 17.448 22.31 28.589 49.05 27.822 26.93.778 43.356-10.98 49.383-28.805 1.884-5.572 2.402-11.362 1.97-17.166Z" fill="#F89F00"/><path d="M29.283 37.016c-1.024.611-1.83 1.241-2.584 2.019-2.552 2.632-3.711 6.208-3.175 9.793.129.872.33 1.628.676 2.536.154.407.684 1.456.915 1.81.764 1.175 1.575 2.048 2.604 2.809a9.68 9.68 0 0 0 2.826 1.453c1.455.471 2.939.59 4.425.356a9.152 9.152 0 0 0 1.952-.51c.377-.138 1.426-.672 1.746-.888 1.434-.971 2.455-2.188 3.128-3.722.157-.36.378-1.043.466-1.44.435-1.966.117-4.075-.867-5.744-.648-1.098-1.483-1.927-2.546-2.527-1.572-.887-3.373-1.083-5.039-.547-1.176.378-2.156 1.09-2.831 2.054a4.729 4.729 0 0 0-.88 2.85c.039 1.332.668 2.603 1.647 3.324.9.662 2.011.843 2.975.487.408-.15.83-.51 1.238-1.049.745-.981.578-2.162-.412-2.905-.522-.393-1.087-.456-1.621-.18-.29.15-.514.376-.637.64-.032.07-.065.122-.073.12-.028-.01-.16-.546-.17-.674-.006-.158.084-.483.196-.701.452-.893 1.661-1.412 2.93-1.26.284.035.672.146.945.27.845.392 1.495 1.055 1.921 1.964.796 1.694.57 3.69-.586 5.223-.84 1.111-2.048 1.865-3.512 2.197a6.673 6.673 0 0 1-4.519-.588c-1.789-.928-3.125-2.584-3.744-4.64a8.534 8.534 0 0 1 .121-5.291c.602-1.686 1.728-3.15 3.248-4.223a10.875 10.875 0 0 1 2.073-1.098c2.894-1.075 5.979-.839 8.6.654 1.546.882 2.815 2.101 3.864 3.712.238.367.811 1.5.976 1.93.2.524.367 1.07.482 1.57.095.423.108.463.228.698.114.222.142.262.27.385.346.335.829.477 1.324.39.207-.037.57-.232.72-.385.316-.325.477-.763.439-1.192-.032-.352-.341-1.505-.582-2.163-.255-.702-.328-.864-.763-1.714-.446-.869-.594-1.118-1.02-1.718a13.872 13.872 0 0 0-5.878-4.771 16.435 16.435 0 0 0-1.799-.604 12.838 12.838 0 0 0-3.373-.414c-1.779.013-3.48.376-5.121 1.09a16.1 16.1 0 0 0-1.203.614ZM68.053 36.56c-1.024.612-1.83 1.242-2.584 2.02-2.552 2.632-3.711 6.208-3.175 9.792.129.872.33 1.629.676 2.537.154.407.684 1.455.915 1.81.764 1.174 1.574 2.048 2.603 2.808a9.68 9.68 0 0 0 2.827 1.454c1.455.47 2.939.59 4.425.355a9.152 9.152 0 0 0 1.952-.509c.377-.139 1.426-.673 1.746-.888 1.434-.972 2.454-2.188 3.128-3.723a9.95 9.95 0 0 0 .466-1.44c.435-1.965.117-4.074-.868-5.743-.647-1.099-1.482-1.927-2.546-2.527-1.57-.888-3.373-1.084-5.038-.548-1.176.379-2.156 1.09-2.831 2.054a4.729 4.729 0 0 0-.88 2.85c.039 1.332.668 2.603 1.647 3.325.9.661 2.011.843 2.975.486.407-.15.83-.509 1.238-1.048.745-.982.578-2.163-.412-2.906-.522-.393-1.087-.455-1.622-.179-.289.15-.513.376-.636.64-.032.07-.065.121-.073.12-.028-.01-.161-.546-.17-.675-.006-.157.084-.482.196-.7.452-.894 1.661-1.412 2.93-1.26.284.034.672.145.945.27.845.392 1.495 1.055 1.921 1.964.796 1.694.57 3.69-.586 5.222-.84 1.112-2.048 1.865-3.512 2.197a6.673 6.673 0 0 1-4.519-.587c-1.789-.928-3.125-2.584-3.744-4.64a8.534 8.534 0 0 1 .121-5.292c.601-1.685 1.728-3.15 3.248-4.223a10.875 10.875 0 0 1 2.073-1.098c2.894-1.074 5.979-.838 8.599.654 1.547.883 2.816 2.102 3.865 3.713.238.366.811 1.5.976 1.93.2.524.367 1.07.482 1.57.095.422.108.463.228.697.114.222.142.263.27.385.346.336.829.478 1.324.39.207-.036.57-.231.72-.384.316-.326.477-.763.439-1.192-.032-.353-.341-1.505-.582-2.164-.255-.701-.328-.864-.763-1.713-.446-.869-.594-1.119-1.02-1.719a13.872 13.872 0 0 0-5.878-4.77 16.414 16.414 0 0 0-1.8-.605 12.838 12.838 0 0 0-3.372-.414c-1.78.013-3.48.377-5.121 1.091a16.1 16.1 0 0 0-1.203.613Z" fill="#000"/><path d="M45.484 67.943H65.58" stroke="#000" stroke-width="3" stroke-linecap="round"/></svg>