<svg width="110" height="112" fill="none" xmlns="http://www.w3.org/2000/svg"><path d="m55.025 110.461-.044-.001-.043.001c-14.249.409-25.468-2.431-33.847-7.622-8.364-5.182-14-12.766-17.005-22.048-4.523-13.97-.942-29.345 5.024-43.224 5.66-13.17 12.668-22.913 23.363-29.058C46.124.666 63.84.666 77.49 8.51c10.946 6.29 18.03 16.349 23.761 29.994 5.592 13.316 9.07 27.92 4.936 41.314-2.918 9.455-8.593 17.288-17.041 22.672-8.46 5.391-19.8 8.386-34.121 7.972Z" fill="#000" stroke="#000" stroke-width="3"/><path d="M99.71 37.376c5.777 13.36 9.477 28.487 4.815 42.276-6.026 17.823-22.453 29.582-49.383 28.804-26.74.767-42.857-10.374-49.05-27.821C.997 66.278 4.81 50.367 10.985 36.44 16.115 24.874 22.498 16 32.01 10.15c13.861-8.526 32.404-8.526 46.265 0 9.766 6.006 16.234 15.2 21.434 27.225Z" fill="#FFC70D"/><path fill-rule="evenodd" clip-rule="evenodd" d="M106.313 63.022c-.262 3.29-.893 6.548-1.97 9.735-6.027 17.824-22.453 29.582-49.383 28.805-26.74.766-42.858-10.374-49.05-27.822-1.24-3.492-1.952-7.075-2.231-10.7-.445 6.142.15 12.266 2.231 18.131 6.192 17.448 22.31 28.589 49.05 27.822 26.93.778 43.356-10.98 49.383-28.805 1.884-5.572 2.402-11.362 1.97-17.166Z" fill="#F89F00"/><path d="M38.695 41.403a3.533 3.533 0 0 1-3.524 3.542 3.534 3.534 0 0 1-3.525-3.542 3.534 3.534 0 0 1 3.525-3.543 3.534 3.534 0 0 1 3.524 3.543Z" fill="#fff" stroke="#000" stroke-width="3"/><path d="m79.861 35.564-6.813 5.015a1 1 0 0 0 .018 1.623l6.795 4.774" stroke="#000" stroke-width="3" stroke-linecap="round"/><path d="M66.364 50.594c1.037-.235 2.075.453 2.166 1.512.107 1.25.08 2.5-.252 3.71a13.286 13.286 0 0 1-2.628 5.011 13.228 13.228 0 0 1-4.47 3.456 13.182 13.182 0 0 1-15.569-3.227 13.285 13.285 0 0 1-2.74-4.95c-.365-1.218-.36-2.611-.239-3.965.096-1.068 1.138-1.775 2.183-1.537.925.21 1.508 1.091 1.438 2.037-.059.806-.036 1.608.197 2.385a9.53 9.53 0 0 0 1.965 3.55 9.486 9.486 0 0 0 3.262 2.405 9.455 9.455 0 0 0 7.907-.09 9.489 9.489 0 0 0 3.206-2.478 9.53 9.53 0 0 0 1.885-3.595 6.485 6.485 0 0 0 .21-2.124c-.053-.972.53-1.885 1.479-2.1Z" fill="#000"/></svg>