<svg width="110" height="112" fill="none" xmlns="http://www.w3.org/2000/svg"><path d="m55.025 110.461-.044-.001-.043.001c-14.249.409-25.468-2.431-33.847-7.622-8.364-5.182-14-12.766-17.005-22.048-4.523-13.97-.942-29.345 5.024-43.224 5.66-13.17 12.668-22.913 23.363-29.058C46.124.666 63.84.666 77.49 8.51c10.946 6.29 18.03 16.349 23.761 29.994 5.592 13.316 9.07 27.92 4.936 41.314-2.918 9.455-8.593 17.288-17.041 22.672-8.46 5.391-19.8 8.386-34.121 7.972Z" fill="#000" stroke="#000" stroke-width="3"/><path d="M99.71 37.376c5.777 13.36 9.477 28.487 4.815 42.276-6.026 17.823-22.453 29.582-49.383 28.804-26.74.767-42.857-10.374-49.05-27.821C.997 66.278 4.81 50.367 10.985 36.44 16.115 24.874 22.5 16 32.01 10.15c13.861-8.526 32.404-8.526 46.265 0 9.766 6.006 16.235 15.2 21.434 27.225Z" fill="#FFC70D"/><path fill-rule="evenodd" clip-rule="evenodd" d="M106.313 63.022c-.262 3.29-.893 6.549-1.97 9.735-6.027 17.824-22.453 29.583-49.383 28.805-26.74.767-42.858-10.374-49.05-27.822-1.24-3.492-1.952-7.075-2.231-10.7-.446 6.142.15 12.267 2.231 18.131 6.192 17.448 22.31 28.589 49.05 27.822 26.93.778 43.356-10.98 49.383-28.805 1.884-5.572 2.402-11.362 1.97-17.166Z" fill="#F89F00"/><path d="M38.155 41.668a3.533 3.533 0 0 1-3.525 3.543 3.533 3.533 0 0 1-3.524-3.543 3.534 3.534 0 0 1 3.524-3.542 3.534 3.534 0 0 1 3.525 3.542ZM79.408 41.668a3.534 3.534 0 0 1-3.525 3.543 3.533 3.533 0 0 1-3.524-3.543 3.534 3.534 0 0 1 3.524-3.542 3.534 3.534 0 0 1 3.525 3.542ZM62.481 50.426c0 1.575-.278 2.932-.765 4.071-1.026 2.402-3.602 3.743-6.412 3.743s-5.375-1.342-6.388-3.744c-.498-1.18-.81-2.551-.886-4.071.262-5.523 3.267-8.86 7.221-9.112 3.755.262 7.23 4.172 7.23 9.113Z" fill="#fff" stroke="#000" stroke-width="3"/><path transform="rotate(154.573 13.625 18.414) skewX(-.161)" stroke="#000" stroke-width="4" stroke-linecap="round" d="M2-2h7.114"/><path transform="rotate(-152.156 47.639 6.502) skewX(.171)" stroke="#000" stroke-width="4" stroke-linecap="round" d="M2-2h7.115"/></svg>