<svg width="30" height="30" fill="none" xmlns="http://www.w3.org/2000/svg"><path d="M0 14.4C0 7.612 0 4.214 2.108 2.108 4.217.003 7.612 0 14.4 0h1.2c6.788 0 10.186 0 12.292 2.108C29.997 4.217 30 7.612 30 14.4v1.2c0 6.788 0 10.186-2.108 12.292C25.783 29.997 22.388 30 15.6 30h-1.2c-6.788 0-10.186 0-12.292-2.108C.003 25.783 0 22.388 0 15.6v-1.2Z" fill="url(#a)"/><path fill-rule="evenodd" clip-rule="evenodd" d="M15 6.635c2.271 0 2.556.01 3.45.05a6.14 6.14 0 0 1 2.03.39 4.27 4.27 0 0 1 2.445 2.445c.244.65.376 1.337.39 2.03.04.894.05 1.178.05 3.45 0 2.272-.01 2.556-.05 3.45a6.141 6.141 0 0 1-.39 2.03 4.27 4.27 0 0 1-2.446 2.446 6.14 6.14 0 0 1-2.03.389c-.893.04-1.178.05-3.45.05-2.27 0-2.555-.01-3.448-.05a6.14 6.14 0 0 1-2.03-.39 4.27 4.27 0 0 1-2.447-2.445 6.139 6.139 0 0 1-.389-2.03c-.04-.894-.05-1.178-.05-3.45 0-2.272.01-2.556.05-3.45a6.14 6.14 0 0 1 .39-2.03A4.27 4.27 0 0 1 9.52 7.074a6.14 6.14 0 0 1 2.03-.389c.894-.04 1.178-.05 3.45-.05Zm3.38 1.556c-.882-.04-1.146-.05-3.38-.05s-2.498.01-3.38.05a4.613 4.613 0 0 0-1.554.289 2.766 2.766 0 0 0-1.587 1.586 4.613 4.613 0 0 0-.288 1.554c-.04.882-.05 1.146-.05 3.38s.01 2.498.05 3.38c.006.53.103 1.056.288 1.554a2.765 2.765 0 0 0 1.587 1.586 4.613 4.613 0 0 0 1.554.29c.882.04 1.146.048 3.38.048s2.498-.008 3.38-.049a4.613 4.613 0 0 0 1.554-.289 2.767 2.767 0 0 0 1.586-1.586 4.611 4.611 0 0 0 .29-1.555c.04-.881.048-1.145.048-3.379s-.008-2.498-.049-3.38a4.61 4.61 0 0 0-.289-1.554 2.764 2.764 0 0 0-1.586-1.586 4.613 4.613 0 0 0-1.555-.29ZM15 17.788a2.791 2.791 0 1 0 0-5.582 2.791 2.791 0 0 0 0 5.582Zm0-7.084a4.296 4.296 0 1 1 0 8.592 4.296 4.296 0 0 1 0-8.592Zm5.47-.17a1.004 1.004 0 1 1-2.01 0 1.004 1.004 0 0 1 2.01 0Z" fill="#fff"/><defs><radialGradient id="a" cx="0" cy="0" r="1" gradientUnits="userSpaceOnUse" gradientTransform="matrix(37.24362 -33.1712 18.9076 21.22888 6.046 31.119)"><stop stop-color="#F9D27A"/><stop offset=".05" stop-color="#F8C871"/><stop offset=".14" stop-color="#F5AD58"/><stop offset=".25" stop-color="#EF8130"/><stop offset=".26" stop-color="#EF7E2D"/><stop offset=".36" stop-color="#F04C3E"/><stop offset=".38" stop-color="#ED4A45"/><stop offset=".49" stop-color="#D43E79"/><stop offset=".55" stop-color="#CA398E"/><stop offset=".7" stop-color="#8D3CC8"/><stop offset=".9" stop-color="#304DF0"/></radialGradient></defs></svg>