<svg width="30" height="30" fill="none" xmlns="http://www.w3.org/2000/svg"><path d="M0 14.4C0 7.612 0 4.214 2.108 2.108 4.217.003 7.612 0 14.4 0h1.2c6.788 0 10.186 0 12.292 2.108C29.997 4.217 30 7.612 30 14.4v1.2c0 6.788 0 10.186-2.108 12.292C25.783 29.997 22.388 30 15.6 30h-1.2c-6.788 0-10.186 0-12.292-2.108C.003 25.783 0 22.388 0 15.6v-1.2Z" fill="url(#a)"/><path fill-rule="evenodd" clip-rule="evenodd" d="M6.18 14.651c4.797-2.09 7.997-3.468 9.597-4.134 4.572-1.902 5.52-2.233 6.14-2.243.227-.005.45.062.638.192.13.114.214.272.234.445.033.214.043.432.028.649-.248 2.602-1.32 8.917-1.866 11.83-.23 1.234-.683 1.649-1.124 1.69-.956.087-1.682-.633-2.607-1.24-1.448-.949-2.267-1.535-3.672-2.467-1.626-1.07-.572-1.66.354-2.62.243-.253 4.453-4.083 4.535-4.43a.336.336 0 0 0-.077-.29.373.373 0 0 0-.34-.034c-.145.033-2.46 1.562-6.942 4.588-.658.452-1.253.672-1.785.66-.589-.013-1.719-.333-2.559-.606-1.03-.335-1.849-.512-1.778-1.081.037-.298.445-.6 1.224-.909Z" fill="#fff"/><defs><linearGradient id="a" x1="0" y1="15" x2="30" y2="15" gradientUnits="userSpaceOnUse"><stop stop-color="#2AABEE"/><stop offset="1" stop-color="#229ED9"/></linearGradient></defs></svg>