<svg width="30" height="30" fill="none" xmlns="http://www.w3.org/2000/svg"><path d="M0 14.4C0 7.612 0 4.214 2.108 2.108 4.217.003 7.612 0 14.4 0h1.2c6.788 0 10.186 0 12.292 2.108C29.997 4.217 30 7.612 30 14.4v1.2c0 6.788 0 10.186-2.108 12.292C25.783 29.997 22.388 30 15.6 30h-1.2c-6.788 0-10.186 0-12.292-2.108C.003 25.783 0 22.388 0 15.6v-1.2Z" fill="#000"/><path d="M13 13.395v-.697a5.093 5.093 0 0 0-.73-.062 5.404 5.404 0 0 0-3.098 9.84 5.398 5.398 0 0 1 3.827-9.08Z" fill="#25F4EE"/><path d="M13.13 21.262a2.472 2.472 0 0 0 2.467-2.363V7.116h2.152a4.037 4.037 0 0 1-.061-.745h-2.945V18.14a2.473 2.473 0 0 1-2.464 2.383 2.529 2.529 0 0 1-1.138-.28 2.47 2.47 0 0 0 1.992 1.025l-.003-.006Zm8.638-10.148v-.649a4.027 4.027 0 0 1-2.233-.672 4.084 4.084 0 0 0 2.233 1.32Z" fill="#25F4EE"/><path d="M19.543 9.788a4.046 4.046 0 0 1-1.007-2.672h-.787a4.08 4.08 0 0 0 1.794 2.678v-.006Zm-7.272 5.791a2.473 2.473 0 0 0-1.139 4.654 2.465 2.465 0 0 1 1.998-3.907c.248.002.493.041.73.114v-2.996a5.11 5.11 0 0 0-.73-.057H13v2.279a2.467 2.467 0 0 0-.73-.087Z" fill="#FE2C55"/><path d="M21.768 11.114v2.281a6.986 6.986 0 0 1-4.083-1.327v5.985a5.415 5.415 0 0 1-8.513 4.427 5.405 5.405 0 0 0 9.363-3.678v-5.975a6.997 6.997 0 0 0 4.088 1.31v-2.93a4.196 4.196 0 0 1-.855-.092v-.001Z" fill="#FE2C55"/><path d="M17.686 18.05v-5.984a6.987 6.987 0 0 0 4.089 1.31v-2.279a4.094 4.094 0 0 1-2.233-1.309 4.083 4.083 0 0 1-1.793-2.672h-2.153v11.788a2.471 2.471 0 0 1-4.465 1.35A2.466 2.466 0 0 1 13 15.71v-2.315a5.425 5.425 0 0 0-3.827 9.147 5.353 5.353 0 0 0 3.103.917 5.417 5.417 0 0 0 5.411-5.409Z" fill="#fff"/></svg>