<svg width="30" height="30" fill="none" xmlns="http://www.w3.org/2000/svg"><path d="M0 14.4C0 7.612 0 4.214 2.108 2.108 4.217.003 7.612 0 14.4 0h1.2c6.788 0 10.186 0 12.292 2.108C29.997 4.217 30 7.612 30 14.4v1.2c0 6.788 0 10.186-2.108 12.292C25.783 29.997 22.388 30 15.6 30h-1.2c-6.788 0-10.186 0-12.292-2.108C.003 25.783 0 22.388 0 15.6v-1.2Z" fill="#07F"/><path d="M15.628 21.07c-6.4 0-10.047-4.387-10.2-11.686h3.209c.105 5.358 2.468 7.627 4.34 8.093V9.384h3.018v4.621c1.847-.2 3.79-2.305 4.444-4.621h3.018c-.502 2.855-2.608 4.96-4.105 5.825 1.497.698 3.894 2.538 4.807 5.86H20.83c-.713-2.232-2.49-3.948-4.842-4.185v4.186h-.361Z" fill="#fff"/></svg>