<svg width="30" height="30" fill="none" xmlns="http://www.w3.org/2000/svg"><path d="M0 14.4C0 7.612 0 4.214 2.108 2.108 4.217.003 7.612 0 14.4 0h1.2c6.788 0 10.186 0 12.292 2.108C29.997 4.217 30 7.612 30 14.4v1.2c0 6.788 0 10.186-2.108 12.292C25.783 29.997 22.388 30 15.6 30h-1.2c-6.788 0-10.186 0-12.292-2.108C.003 25.783 0 22.388 0 15.6v-1.2Z" fill="red"/><path d="M23.145 10.814a2.141 2.141 0 0 0-1.517-1.513c-1.334-.357-6.682-.357-6.682-.357s-5.349 0-6.683.357a2.143 2.143 0 0 0-1.512 1.513c-.357 1.334-.357 4.116-.357 4.116s0 2.783.357 4.117a2.143 2.143 0 0 0 1.512 1.512c1.334.357 6.683.357 6.683.357s5.348 0 6.682-.357a2.14 2.14 0 0 0 1.511-1.512c.357-1.334.357-4.117.357-4.117s.006-2.782-.351-4.116Zm-9.907 6.682v-5.132l4.445 2.566-4.445 2.566Z" fill="#fff"/></svg>