<svg width="286" height="60" fill="none" xmlns="http://www.w3.org/2000/svg"><path d="M61.016 39.396c3.528 0 6.552-1.8 7.992-4.572l-1.512-.9c-1.188 2.232-3.564 3.744-6.48 3.744-4.356 0-7.632-3.384-7.632-7.668 0-4.284 3.276-7.668 7.632-7.668 2.88 0 5.328 1.476 6.372 3.744l1.476-.864c-1.296-2.808-4.32-4.608-7.848-4.608-5.436 0-9.468 4.068-9.468 9.396 0 5.328 4.032 9.396 9.468 9.396ZM85.2 21H70.296v1.764h6.552V39h1.8V22.764H85.2V21Zm16.54 0L90.256 35.868V21h-1.8v18h1.584l11.448-14.868V39h1.836V21h-1.584Zm21.757 18-7.164-9.288L123.065 21h-2.16l-5.688 7.308L109.565 21h-2.196l6.768 8.748-7.2 9.252h2.196l6.084-7.848L121.301 39h2.196Zm16.914-18-11.484 14.868V21h-1.8v18h1.584l11.448-14.868V39h1.836V21h-1.584Zm5.81 22.788h15.372V42.06h-15.372v1.728ZM180.667 21h-14.868v18h1.8V22.764h11.232V39h1.836V21Zm15.098-.396c-3.492 0-6.264 1.8-7.74 4.572V21h-1.8v25.2h1.8V34.824c1.476 2.772 4.248 4.572 7.74 4.572 5.148 0 9.324-4.068 9.324-9.396 0-5.328-4.176-9.396-9.324-9.396Zm-.108 17.064c-4.284 0-7.632-3.384-7.632-7.668 0-4.284 3.348-7.668 7.632-7.668s7.632 3.384 7.632 7.668c0 4.284-3.348 7.668-7.632 7.668Zm22.015 1.728c5.22 0 9.432-4.068 9.432-9.396 0-5.328-4.212-9.396-9.432-9.396-5.256 0-9.468 4.068-9.468 9.396 0 5.328 4.212 9.396 9.468 9.396Zm0-1.728c-4.284 0-7.632-3.384-7.632-7.668 0-4.284 3.348-7.668 7.632-7.668s7.596 3.384 7.596 7.668c0 4.284-3.312 7.668-7.596 7.668Zm22.008 1.728c3.528 0 6.552-1.8 7.992-4.572l-1.512-.9c-1.188 2.232-3.564 3.744-6.48 3.744-4.356 0-7.632-3.384-7.632-7.668 0-4.284 3.276-7.668 7.632-7.668 2.88 0 5.328 1.476 6.372 3.744l1.476-.864c-1.296-2.808-4.32-4.608-7.848-4.608-5.436 0-9.468 4.068-9.468 9.396 0 5.328 4.032 9.396 9.468 9.396ZM263.864 21H248.96v1.764h6.552V39h1.8V22.764h6.552V21Zm10.797 18.396c5.22 0 9.432-4.068 9.432-9.396 0-5.328-4.212-9.396-9.432-9.396-5.256 0-9.468 4.068-9.468 9.396 0 5.328 4.212 9.396 9.468 9.396Zm0-1.728c-4.284 0-7.632-3.384-7.632-7.668 0-4.284 3.348-7.668 7.632-7.668s7.596 3.384 7.596 7.668c0 4.284-3.312 7.668-7.596 7.668Z" fill="#DC6900"/><path d="M53 48h233" stroke="#DC6900" stroke-width="2"/><g filter="url(#a)"><path d="m17.554 6.786 4.669 2.408-9.797 11.53V9.854c0-2.608 2.787-4.276 5.128-3.068Z" fill="#DC6900" stroke="#000"/><path d="M19.554 13.904c-1.33 1.566-3.918.62-3.918-1.432 0-1.645 1.758-2.697 3.234-1.936 1.264.652 1.597 2.293.684 3.368Z" fill="#000" stroke="#000"/><path d="M31.455 48.024c-.316.643-.94 1.148-1.88 1.479-.944.332-2.17.476-3.61.412-2.88-.127-6.515-1.081-10.207-2.85-3.735-1.79-6.14-3.235-7.715-4.98-1.497-1.658-2.279-3.626-2.67-6.539 1.786-.898 3.834-1.513 6.276-1.524 2.586-.012 5.644.654 9.33 2.42 3.692 1.769 6.7 3.998 8.583 6.152.942 1.078 1.587 2.119 1.906 3.056.318.934.303 1.73-.013 2.374Z" fill="#DC6900" stroke="#000"/><path d="M11.134 38.355c-.369 1.053-.813 1.546-1.291 2.077l-.121.135c-.448.5-.887 1.046-1.223 2.008-.475-.432-.973-.908-1.465-1.68-.67-1.049-1.318-2.65-1.692-5.363 1.712-.787 3.033-1.192 4.243-1.378 1.014-.156 1.967-.162 3.033-.098a5.95 5.95 0 0 0-.83 1.81c-.07.256-.13.522-.19.79l-.079.352c-.092.396-.204.83-.385 1.346Z" fill="#fff" stroke="#000"/><path d="M21.896 28.523 29.3 11.785l7.498 16.739 4.74 15.214a4.967 4.967 0 0 1-3.145 6.18c-.825.28-1.675.478-2.54.59l-2.045.265c-2.96.384-5.958.375-8.916-.027l-2.132-.29c-.81-.11-1.61-.295-2.387-.552a4.997 4.997 0 0 1-3.198-6.23l4.721-15.151ZM41.145 6.771l-4.692 2.411 9.814 11.543V9.843c0-2.606-2.782-4.274-5.122-3.072Z" fill="#DC6900" stroke="#000"/><path d="M39.12 13.892c1.331 1.566 3.92.62 3.92-1.433 0-1.645-1.759-2.697-3.235-1.935-1.264.652-1.597 2.293-.684 3.368Z" fill="#000" stroke="#000"/><path d="M39.62 26.84c-2.501 1.23-5.592 2.179-10.273 3.337-4.657-1.158-7.773-2.108-10.293-3.337-2.458-1.199-4.367-2.674-6.586-4.91.801-3.716 2.559-7.02 5.284-9.41 2.784-2.44 6.61-3.957 11.546-3.957 4.934 0 8.786 1.528 11.596 3.977 2.749 2.395 4.529 5.698 5.33 9.387-2.266 2.24-4.164 3.715-6.604 4.914Z" fill="#DC6900" stroke="#000"/><path d="M42.285 22.505c1.027-.174 2.127-.203 3.422-.06-1.66 1.635-3.513 3.208-6.821 4.716-2.216 1.01-4.77 1.826-8.079 2.66l.036-.04c2.126-2.382 3.59-4.023 7.635-5.971 1.338-.645 2.528-1.089 3.807-1.305ZM16.384 22.528c-1.018-.182-2.109-.221-3.4-.081 1.657 1.648 3.477 3.255 6.783 4.762 2.216 1.01 4.77 1.826 8.079 2.66l-.036-.04c-2.126-2.381-3.59-4.023-7.635-5.971-1.341-.647-2.522-1.102-3.791-1.33Z" fill="#fff" stroke="#000"/><path d="M29.328 28.249c1.001 0 1.59 1.122 1.01 1.929l-.034.049c-.17.236-.423.401-.71.462a1.219 1.219 0 0 1-1.211-.453l-.03-.038c-.611-.804-.039-1.95.975-1.95ZM25.083 17.843c0 1.271-1.044 2.302-2.331 2.302-1.288 0-2.331-1.03-2.331-2.302 0-1.271 1.043-2.302 2.33-2.302 1.288 0 2.332 1.03 2.332 2.302Z" fill="#000"/><ellipse cx="22.219" cy="17.105" rx=".693" ry=".684" fill="#fff"/><path d="M25.747 18.971a3.392 3.392 0 0 0-.71-2.27c-.504-.648-1.131-.998-1.941-1.167-.81-.168-1.7.03-2.425.423-.726.393-1.211.833-1.627 1.621.5-.718.99-1.11 1.686-1.486.696-.377 1.485-.536 2.262-.375.777.162 1.327.448 1.863 1.062.518.593.82 1.418.885 2.188l.007.004ZM36.781 17.94c0 1.272-1.044 2.303-2.331 2.303-1.288 0-2.331-1.03-2.331-2.302 0-1.271 1.044-2.302 2.331-2.302s2.331 1.03 2.331 2.302Z" fill="#000"/><ellipse cx="33.917" cy="17.203" rx=".693" ry=".684" fill="#fff"/><path d="M31.48 18.851a3.394 3.394 0 0 1 .794-2.243c.527-.63 1.167-.957 1.983-1.096.815-.139 1.696.091 2.407.51.71.42 1.18.876 1.565 1.68-.473-.736-.947-1.145-1.629-1.547-.681-.402-1.464-.59-2.247-.456-.782.133-1.342.4-1.9.993-.54.574-.872 1.388-.966 2.155l-.007.004Z" fill="#000"/><path d="M32.601 36.318c.914 2.09 1.599 4.921 2.19 8.329l.09.714c.169 1.344.295 2.353.321 3.137.031.927-.088 1.4-.324 1.694-.237.296-.682.521-1.614.701-.835.162-1.954.27-3.472.417l-.443.043c-1.632-.17-2.813-.298-3.679-.494-.876-.198-1.322-.445-1.576-.775-.257-.334-.392-.852-.393-1.79 0-.911.123-2.115.292-3.759l.01-.091c.541-3.282 1.201-6.062 2.102-8.133.875-2.008 1.935-3.256 3.242-3.723 1.308.467 2.368 1.704 3.254 3.73Z" fill="#fff" stroke="#000"/><path d="M29.198 51.709c-.89.098-1.633.098-4.157-.147-1.888-.182-2.723-.44-3.614-.88 1.04-1.661 2.624-2.248 4.505-2.003 1.782.39 2.821 1.368 3.267 3.03ZM29.54 51.759c.89.097 1.633.097 4.157-.147 1.888-.183 2.722-.44 3.613-.88-1.04-1.661-2.623-2.248-4.504-2.004-1.782.391-2.821 1.369-3.267 3.03Z" fill="#000"/></g><defs><filter id="a" x="-2" y="0" width="61" height="62" filterUnits="userSpaceOnUse" color-interpolation-filters="sRGB"><feFlood flood-opacity="0" result="BackgroundImageFix"/><feColorMatrix in="SourceAlpha" values="0 0 0 0 0 0 0 0 0 0 0 0 0 0 0 0 0 0 127 0" result="hardAlpha"/><feOffset dy="4"/><feGaussianBlur stdDeviation="2"/><feComposite in2="hardAlpha" operator="out"/><feColorMatrix values="0 0 0 0 0 0 0 0 0 0 0 0 0 0 0 0 0 0 0.25 0"/><feBlend in2="BackgroundImageFix" result="effect1_dropShadow_1_130"/><feBlend in="SourceGraphic" in2="effect1_dropShadow_1_130" result="shape"/></filter></defs></svg>